# xmcd
#
# Track frame offsets: 
#        150
#        26022
#        49330
#        72687
#        92360
#        115407
#        142482
#        164800
#        186620
#        209425
#        229525
#
# Disc length: 3379 seconds
#
# Revision: 3
# Processed by: cddbd v1.5.2PL0 Copyright (c) Steve Scherf et al.
# Submitted via: ExactAudioCopy v1.3
#
DISCID=b20d310b
DTITLE=Tony Terry - Tony Terry
DYEAR=1990
DGENRE=Funk
TTITLE0=Head Over Heels
TTITLE1=Bad Girl
TTITLE2=Baby Love
TTITLE3=Friends And Lovers
TTITLE4=With You
TTITLE5=Come Home With Me
TTITLE6=That Kind Of Guy
TTITLE7=Tongue Tied
TTITLE8=Let Me Love You
TTITLE9=Read My Mind
TTITLE10=Everlasting Love
EXTD=
EXTT0=
EXTT1=
EXTT2=
EXTT3=
EXTT4=
EXTT5=
EXTT6=
EXTT7=
EXTT8=
EXTT9=
EXTT10=
PLAYORDER=
